<svg role="img" viewBox="0 0 24 24" xmlns="http://www.w3.org/2000/svg"><title>Figma</title><path fill="#F24E1E" d="M15.852 8.981h-4.588V0h4.588c2.476 0 4.49 2.014 4.49 4.49s-2.014 4.491-4.49 4.491zM12.735 7.51h3.117c1.665 0 3.019-1.355 3.019-3.019s-1.355-3.019-3.019-3.019h-3.117V7.51z"/><path fill="#FF7262" d="M12.735 8.981H8.148c-2.476 0-4.49-2.014-4.49-4.49S5.672 0 8.148 0h4.588v8.981z"/><path fill="#A259FF" d="M8.148 8.981c-1.665 0-3.019 1.355-3.019 3.019s1.354 3.02 3.019 3.02h3.117V8.981H8.148z"/><path fill="#1ABCFE" d="M12.735 16.49H8.148c-2.476 0-4.49-2.014-4.49-4.49s2.014-4.49 4.49-4.49h4.588v8.98z"/><path fill="#0ACF83" d="M8.172 24c-2.489 0-4.515-2.014-4.515-4.49s2.014-4.49 4.49-4.49h4.588v4.441c0 2.503-2.047 4.539-4.563 4.539zm-.024-7.51a3.023 3.023 0 0 0-3.019 3.019c0 1.665 1.365 3.019 3.044 3.019 1.705 0 3.093-1.376 3.093-3.068v-2.97H8.148z"/><circle fill="#1ABCFE" cx="15.75" cy="12" r="3.019"/></svg>