<svg role="img" viewBox="0 0 24 24" xmlns="http://www.w3.org/2000/svg"><title>MATLAB</title><path fill="#0076A8" d="M24 7.09s-20.184 2.976-20.184 8.596c0 3.705 2.298 1.867 4.275.34 1.977-1.526 3.126-3.223 5.788-6.245.337-.383.736-.34.85.085.114.425 2.382 10.154 2.382 10.154s.566 1.444 1.246 1.444c.68 0 1.19-.51 1.587-1.19.397-.68 4.056-8.766 4.056-8.766V7.09Z"/><path fill="#F05A28" d="M0 15.686c0-5.62 20.184-8.596 20.184-8.596v4.428S16.129 19.284 15.732 19.964c-.397.68-.907 1.19-1.587 1.19-.68 0-1.246-1.444-1.246-1.444s-2.268-9.729-2.382-10.154c-.114-.425-.513-.468-.85-.085-2.662 3.022-3.811 4.719-5.788 6.245C1.902 17.239 0 19.077 0 15.686z"/></svg>